{
  "source": "C:\\Users\\Peter\\Desktop\\stuff\\MIUN\\quantitative_research\\video_compression\\videos\\BVI-HD\\BVI-HD_CDVL_videos\\ORIG\\Boxing_1920x1080_30fps.mp4",
  "output": "C:\\Users\\Peter\\Desktop\\stuff\\MIUN\\quantitative_research\\video_compression\\compressed_videos\\BVI-HD\\vp9\\8\\Boxing_1920x1080_30fps_vp9.webm",
  "codec": "vp9",
  "ok": "Input #0, mov,mp4,m4a,3gp,3g2,mj2, from 'C:\\Users\\Peter\\Desktop\\stuff\\MIUN\\quantitative_research\\video_compression\\videos\\BVI-HD\\BVI-HD_CDVL_videos\\ORIG\\Boxing_1920x1080_30fps.mp4':\n  Metadata:\n    major_brand     : isom\n    minor_version   : 512\n    compatible_brands: isomiso2avc1mp41\n    encoder         : Lavf54.28.101\n  Duration: 00:00:05.00, start: 0.000000, bitrate: 238363 kb/s\n  Stream #0:0[0x1](und): Video: h264 (High 4:4:4 Predictive) (avc1 / 0x31637661), yuv420p(progressive), 1920x1080, 238359 kb/s, 30 fps, 30 tbr, 30 tbn (default)\n    Metadata:\n      handler_name    : VideoHandler\n      vendor_id       : [0][0][0][0]\n[out#0/webm @ 00000254f72312c0] Codec AVOption b:a (set bitrate (in bits/s)) has not been used for any stream. The most likely reason is either wrong type (e.g. a video option with no video streams) or that it is a private option of some decoder which was not actually used for any stream.\nStream mapping:\n  Stream #0:0 -> #0:0 (h264 (native) -> vp9 (libvpx-vp9))\nPress [q] to stop, [?] for help\n[libvpx-vp9 @ 00000254f7aeb040] v1.15.2-100-g40561f514\nOutput #0, webm, to 'C:\\Users\\Peter\\Desktop\\stuff\\MIUN\\quantitative_research\\video_compression\\compressed_videos\\BVI-HD\\vp9\\8\\Boxing_1920x1080_30fps_vp9.webm':\n  Metadata:\n    major_brand     : isom\n    minor_version   : 512\n    compatible_brands: isomiso2avc1mp41\n    encoder         : Lavf62.3.100\n  Stream #0:0(und): Video: vp9, yuv420p(tv, progressive), 1920x1080, q=2-31, 8000 kb/s, 30 fps, 1k tbn (default)\n    Metadata:\n      encoder         : Lavc62.11.100 libvpx-vp9\n      handler_name    : VideoHandler\n      vendor_id       : [0][0][0][0]\n    Side data:\n      cpb: bitrate max/min/avg: 0/0/0 buffer size: 8000000 vbv_delay: N/A\nframe=    0 fps=0.0 q=0.0 size=       0KiB time=N/A bitrate=N/A speed=N/A elapsed=0:00:00.52    \nframe=    4 fps=3.6 q=39.0 size=       1KiB time=00:00:00.13 bitrate=  38.0kbits/s speed=0.12x elapsed=0:00:01.11    \nframe=    9 fps=5.5 q=30.0 size=       1KiB time=00:00:00.30 bitrate=  16.9kbits/s speed=0.184x elapsed=0:00:01.63    \nframe=   13 fps=6.0 q=27.0 size=       1KiB time=00:00:00.43 bitrate=  11.7kbits/s speed= 0.2x elapsed=0:00:02.16    \nframe=   17 fps=6.3 q=27.0 size=       1KiB time=00:00:00.56 bitrate=   9.0kbits/s speed=0.211x elapsed=0:00:02.69    \nframe=   20 fps=6.2 q=27.0 size=       1KiB time=00:00:00.66 bitrate=   7.6kbits/s speed=0.207x elapsed=0:00:03.21    \nframe=   23 fps=6.1 q=27.0 size=       1KiB time=00:00:00.76 bitrate=   6.6kbits/s speed=0.204x elapsed=0:00:03.75    \nframe=   27 fps=6.3 q=29.0 size=       1KiB time=00:00:00.90 bitrate=   5.6kbits/s speed=0.211x elapsed=0:00:04.26    \nframe=   30 fps=6.2 q=28.0 size=       1KiB time=00:00:01.00 bitrate=   5.1kbits/s speed=0.208x elapsed=0:00:04.80    \nframe=   34 fps=6.4 q=27.0 size=       1KiB time=00:00:01.13 bitrate=   4.5kbits/s speed=0.213x elapsed=0:00:05.33    \nframe=   38 fps=6.5 q=25.0 size=       1KiB time=00:00:01.26 bitrate=   4.0kbits/s speed=0.216x elapsed=0:00:05.87    \nframe=   41 fps=6.4 q=9.0 size=       1KiB time=00:00:01.36 bitrate=   3.7kbits/s speed=0.213x elapsed=0:00:06.40    \nframe=   45 fps=6.5 q=28.0 size=       1KiB time=00:00:01.50 bitrate=   3.4kbits/s speed=0.216x elapsed=0:00:06.93    \nframe=   49 fps=6.6 q=29.0 size=       1KiB time=00:00:01.63 bitrate=   3.1kbits/s speed=0.219x elapsed=0:00:07.46    \nframe=   52 fps=6.5 q=30.0 size=       1KiB time=00:00:01.73 bitrate=   2.9kbits/s speed=0.216x elapsed=0:00:08.02    \nframe=   56 fps=6.5 q=28.0 size=       1KiB time=00:00:01.83 bitrate=   2.8kbits/s speed=0.214x elapsed=0:00:08.56    \nframe=   58 fps=6.4 q=28.0 size=       1KiB time=00:00:01.93 bitrate=   2.6kbits/s speed=0.212x elapsed=0:00:09.12    \nframe=   60 fps=6.2 q=29.0 size=       1KiB time=00:00:02.00 bitrate=   2.5kbits/s speed=0.205x elapsed=0:00:09.73    \nframe=   61 fps=5.9 q=12.0 size=       1KiB time=00:00:02.03 bitrate=   2.5kbits/s speed=0.197x elapsed=0:00:10.34    \nframe=   63 fps=5.7 q=28.0 size=       1KiB time=00:00:02.10 bitrate=   2.4kbits/s speed=0.191x elapsed=0:00:10.96    \nframe=   67 fps=5.8 q=27.0 size=       1KiB time=00:00:02.23 bitrate=   2.3kbits/s speed=0.194x elapsed=0:00:11.48    \nframe=   70 fps=5.8 q=27.0 size=       1KiB time=00:00:02.33 bitrate=   2.2kbits/s speed=0.194x elapsed=0:00:12.04    \nframe=   71 fps=5.6 q=11.0 size=       1KiB time=00:00:02.36 bitrate=   2.1kbits/s speed=0.188x elapsed=0:00:12.60    \nframe=   74 fps=5.6 q=28.0 size=       1KiB time=00:00:02.46 bitrate=   2.1kbits/s speed=0.187x elapsed=0:00:13.17    \nframe=   77 fps=5.6 q=28.0 size=       1KiB time=00:00:02.56 bitrate=   2.0kbits/s speed=0.187x elapsed=0:00:13.72    \nframe=   79 fps=5.5 q=28.0 size=       1KiB time=00:00:02.63 bitrate=   1.9kbits/s speed=0.184x elapsed=0:00:14.30    \nframe=   80 fps=5.4 q=29.0 size=       1KiB time=00:00:02.66 bitrate=   1.9kbits/s speed=0.179x elapsed=0:00:14.87    \nframe=   83 fps=5.4 q=28.0 size=       1KiB time=00:00:02.76 bitrate=   1.8kbits/s speed=0.18x elapsed=0:00:15.39    \nframe=   86 fps=5.4 q=30.0 size=       1KiB time=00:00:02.86 bitrate=   1.8kbits/s speed=0.18x elapsed=0:00:15.91    \nframe=   88 fps=5.3 q=30.0 size=       1KiB time=00:00:02.93 bitrate=   1.7kbits/s speed=0.178x elapsed=0:00:16.45    \nframe=   90 fps=5.3 q=29.0 size=       1KiB time=00:00:03.00 bitrate=   1.7kbits/s speed=0.176x elapsed=0:00:17.05    \nframe=   92 fps=5.2 q=29.0 size=       1KiB time=00:00:03.06 bitrate=   1.7kbits/s speed=0.174x elapsed=0:00:17.62    \nframe=   95 fps=5.2 q=29.0 size=       1KiB time=00:00:03.16 bitrate=   1.6kbits/s speed=0.175x elapsed=0:00:18.14    \nframe=   98 fps=5.2 q=29.0 size=       1KiB time=00:00:03.26 bitrate=   1.6kbits/s speed=0.175x elapsed=0:00:18.67    \nframe=  100 fps=5.2 q=29.0 size=       1KiB time=00:00:03.33 bitrate=   1.5kbits/s speed=0.173x elapsed=0:00:19.21    \nframe=  102 fps=5.2 q=31.0 size=       1KiB time=00:00:03.40 bitrate=   1.5kbits/s speed=0.172x elapsed=0:00:19.78    \nframe=  105 fps=5.2 q=30.0 size=       1KiB time=00:00:03.50 bitrate=   1.4kbits/s speed=0.172x elapsed=0:00:20.31    \nframe=  108 fps=5.2 q=31.0 size=       1KiB time=00:00:03.60 bitrate=   1.4kbits/s speed=0.173x elapsed=0:00:20.81    \nframe=  110 fps=5.1 q=30.0 size=       1KiB time=00:00:03.66 bitrate=   1.4kbits/s speed=0.172x elapsed=0:00:21.37    \nframe=  112 fps=5.1 q=31.0 size=       1KiB time=00:00:03.73 bitrate=   1.4kbits/s speed=0.17x elapsed=0:00:21.97    \nframe=  115 fps=5.1 q=30.0 size=       1KiB time=00:00:03.83 bitrate=   1.3kbits/s speed=0.17x elapsed=0:00:22.52    \nframe=  119 fps=5.2 q=31.0 size=       1KiB time=00:00:03.96 bitrate=   1.3kbits/s speed=0.172x elapsed=0:00:23.07    \nframe=  120 fps=5.1 q=31.0 size=       1KiB time=00:00:04.00 bitrate=   1.3kbits/s speed=0.169x elapsed=0:00:23.63    \nframe=  123 fps=5.1 q=31.0 size=       1KiB time=00:00:04.10 bitrate=   1.2kbits/s speed=0.17x elapsed=0:00:24.17    \nframe=  126 fps=5.1 q=30.0 size=       1KiB time=00:00:04.20 bitrate=   1.2kbits/s speed=0.17x elapsed=0:00:24.74    \nframe=  126 fps=5.0 q=30.0 size=       1KiB time=00:00:04.20 bitrate=   1.2kbits/s speed=0.166x elapsed=0:00:25.26    \nframe=  126 fps=4.9 q=30.0 size=       1KiB time=00:00:04.20 bitrate=   1.2kbits/s speed=0.163x elapsed=0:00:25.78    \nframe=  126 fps=4.8 q=30.0 size=       1KiB time=00:00:04.20 bitrate=   1.2kbits/s speed=0.159x elapsed=0:00:26.33    \nframe=  126 fps=4.7 q=30.0 size=       1KiB time=00:00:04.20 bitrate=   1.2kbits/s speed=0.156x elapsed=0:00:26.88    \nframe=  126 fps=4.6 q=30.0 size=       1KiB time=00:00:04.20 bitrate=   1.2kbits/s speed=0.153x elapsed=0:00:27.43    \nframe=  126 fps=4.5 q=30.0 size=       1KiB time=00:00:04.20 bitrate=   1.2kbits/s speed=0.15x elapsed=0:00:27.97    \nframe=  126 fps=4.4 q=30.0 size=       1KiB time=00:00:04.20 bitrate=   1.2kbits/s speed=0.147x elapsed=0:00:28.51    \nframe=  126 fps=4.3 q=30.0 size=       1KiB time=00:00:04.20 bitrate=   1.2kbits/s speed=0.144x elapsed=0:00:29.11    \n[out#0/webm @ 00000254f72312c0] video:4248KiB audio:0KiB subtitle:0KiB other streams:0KiB global headers:0KiB muxing overhead: 0.042967%\nframe=  150 fps=5.1 q=29.0 Lsize=    4250KiB time=00:00:05.00 bitrate=6962.7kbits/s speed=0.169x elapsed=0:00:29.58    \n",
  "seconds": 29.844138860702515,
  "probe_out": {}
}